# xmcd CD database file
# Copyright (C) 1993-1996 Ti Kan
#
# Track frame offsets:
# 150
# 14090
# 26450
# 40410
# 51463
# 64833
# 77008
# 88338
# 100828
# 114395
# 125765
# 136193
#
# Disc length: 1981 seconds
# Revision: 0
# Processed by: cddbd v1.4b41PL1 Copyright (c) Steve Scherf et al.
# Submitted via: CDSpectrumPro v3.2.327
#
DISCID=a707bb0c
DTITLE=Willie Nelson - Country Outlaw
DYEAR=1900
DGENRE=
TTITLE0=Rainy Day Blues
TTITLE1=Shelter Of My Arms
TTITLE2=Will You Remember Mine?
TTITLE3=Suffering In Silence
TTITLE4=Everything But You
TTITLE5=I Can't Find The Time
TTITLE6=Night Life
TTITLE7=Any Old Arms Won't Do
TTITLE8=A Moment Isn't Very Long
TTITLE9=Is There Something On Your Mind?
TTITLE10=Blame It On The Times
TTITLE11=I Just Don't Understand
EXTD=
EXTT0=
EXTT1=
EXTT2=
EXTT3=
EXTT4=
EXTT5=
EXTT6=
EXTT7=
EXTT8=
EXTT9=
EXTT10=
EXTT11=
PLAYORDER=
